# xmcd CD database file
#
# Track frame offsets:
#	150
#	24165
#	45299
#	62275
#	81751
#	96765
#	122306
#	149417
#	166794
#
# Disc length: 2378 seconds
#
# Revision: 0
# Processed by: cddbd v1.5.2PL0 Copyright (c) Steve Scherf et al.
# Submitted via: Feurio! 1.68 - http://www.feurio.com
#
DISCID=5b094809
DTITLE=Buddy and Julie Miller - Austin 2000 2
DYEAR=1900
DGENRE=
TTITLE0=I Need You
TTITLE1=That's How Strong My Love Is
TTITLE2=Forever My Beloved
TTITLE3=Somewhere Trouble Doesn't Go
TTITLE4=Hole In My Head
TTITLE5=I Still Cry [w/ Patty Griffin]
TTITLE6=Rock Salt And Nails [Utah Philips]
TTITLE7=That's How I Got To Memphis
TTITLE8=I Don't Mean Maybe
EXTD=
EXTT0=
EXTT1=
EXTT2=
EXTT3=
EXTT4=
EXTT5=
EXTT6=
EXTT7=
EXTT8=
PLAYORDER=
